The Last Airbender 2010 DVDRip V2 XviD AC3-ViSiON


Plot:

The story follows the adventures of Aang, a young successor to a long line of Avatars, who must put his childhood ways aside and stop the Fire Nation from enslaving the Water, Earth and Air nations. 

 
http://www.imdb.com/title/tt0938283/
Action | Adventure | Family | Fantasy


Video
ID : 0
Format : MPEG-4 Visual
Format profile : Advanced Simple@L5
Format settings, BVOP : Yes
Format settings, QPel : No
Format settings, GMC : No warppoints
Format settings, Matrix : Default (H.263)
Muxing mode : Packed bitstream
Codec ID : XVID
Codec ID/Hint : XviD
Duration : 1h 43mn
Bit rate : 1 615 Kbps
Width : 720 pixels
Height : 304 pixels
Display aspect ratio : 2.35:1
Frame rate : 23.976 fps
Resolution : 8 bits
Colorimetry : 4:2:0
Scan type : Progressive
Bits/(Pixel*Frame) : 0.308
Stream size : 1.16 GiB (78%)
Writing library : XviD 1.2.1 (UTC 2008-12-04)

Audio
ID : 1
Format : AC-3
Format/Info : Audio Coding 3
Codec ID : 2000
Duration : 1h 43mn
Bit rate mode : Constant
Bit rate : 448 Kbps
Channel(s) : 6 channels
Channel positions : Front: L C R, Surround: L R, LFE
Sampling rate : 48.0 KHz
Stream size : 331 MiB (22%)
Alignment : Aligned on interleaves
Interleave, duration : 64 ms (1.53 video frames)
Interleave, preload duration : 384 ms
Title : VTS_02_1 T80 3_2ch 448Kbps DELAY 0ms

V2 Reason: Now with untouched audio
from R1, noises fixed.


Screenshots:
 
http://www.postimg.com/image/23000/22037.jpg 
http://www.postimg.com/image/23000/22038.jpg 
http://www.postimg.com/image/23000/22039.jpg


ENJOY!